<svg width="70" height="70" viewBox="0 0 70 70" fill="none" xmlns="http://www.w3.org/2000/svg">
<rect x="0.35" y="0.35" width="69.3" height="69.3" rx="34.65" fill="white"/>
<rect x="0.35" y="0.35" width="69.3" height="69.3" rx="34.65" stroke="#FE4300" stroke-width="0.7"/>
<path d="M32.6664 21.9872C35.8361 20.0772 40.6931 18.4682 44.4486 19.1561C45.6512 19.3763 46.7975 20.06 47.4171 21.1347C48.5324 23.0685 48.2997 25.3625 46.2039 26.4889C43.2778 28.0618 39.5468 27.6869 36.4558 26.8358C35.3163 26.5245 34.1954 26.1489 33.0984 25.7109C31.9545 26.2615 27.7378 27.9349 28.1701 29.5004L28.2147 29.5434C28.4526 29.7708 28.8749 30.0327 29.186 30.1114C30.7348 30.5033 32.5214 30.5592 34.0973 30.6199C37.5612 30.7532 41.0157 30.6981 44.4647 31.0305C46.05 31.1833 47.8216 31.4138 49.3245 31.9229C50.6638 32.3765 52.2002 33.2453 52.218 34.8318C52.2264 35.56 51.9448 36.5011 51.4162 37.0076C50.2755 38.1007 48.0641 38.8415 46.5803 39.3071C44.4196 39.9851 42.205 40.5531 40.031 41.1558C38.1014 41.6705 36.1961 42.271 34.3205 42.9547C30.9554 44.2135 26.1266 46.4198 26.2212 50.6403C26.2479 51.8297 26.6553 53.0913 27.2575 54.1134C26.1864 53.1246 25.0138 51.3486 24.4949 49.9932C21.576 42.3668 31.3532 38.0808 37.0162 36.5572C37.5712 36.406 38.1315 36.2743 38.6959 36.1626C38.9966 36.1037 39.5705 36.0142 39.8453 35.9359C40.093 35.9002 40.4547 35.8395 40.6857 35.7562L39.7707 35.7722C35.7241 36.0225 31.8474 36.5158 27.7077 36.824C25.3519 36.9994 19.4084 37.2999 18.8474 33.8295C18.7978 32.6611 19.6602 31.5424 20.3955 30.7331C22.575 28.3337 25.3509 26.523 28.0733 24.8012C28.7208 24.3917 29.4453 24.0505 30.0748 23.6453C29.4941 23.1332 28.9941 22.7015 28.4742 22.111C27.3753 20.8629 26.2706 18.9259 26.0448 17.2773C27.4442 18.9484 29.2526 20.6134 31.26 21.5275C31.709 21.732 32.1935 21.8477 32.6664 21.9872ZM38.0035 23.5246C38.3739 23.5757 38.8879 23.6752 39.2281 23.7102C40.1042 23.846 42.0775 24.2392 42.9103 23.8021C42.9426 23.7851 43.078 23.6652 43.1144 23.6319C43.1245 22.8172 42.8541 22.6325 42.0751 22.457C40.7185 22.4171 39.187 22.8802 38.0035 23.5246Z" fill="#FE4300"/>
</svg>
